<svg width="142" height="33" viewBox="0 0 142 33" fill="none" xmlns="http://www.w3.org/2000/svg">
<path d="M18.4842 15.884C18.4842 15.404 18.3162 14.996 17.9802 14.66C17.6682 14.324 17.2722 14.144 16.7922 14.12H5.27216V23.372C5.27216 23.996 5.50016 24.536 5.95616 24.992C6.41216 25.424 6.95216 25.64 7.57616 25.64H8.04416V26H0.160156V25.64H0.628156C1.25216 25.64 1.78016 25.424 2.21216 24.992C2.66816 24.536 2.90816 23.996 2.93216 23.372V3.21198C2.93216 2.63598 2.69216 2.15598 2.21216 1.77198C1.75616 1.36398 1.22816 1.15998 0.628156 1.15998H0.196156L0.160156 0.799978H10.7082C11.7402 0.799978 12.6522 0.715978 13.4442 0.547979C14.2362 0.379978 14.7522 0.247978 14.9922 0.151978V4.21998H14.6322V3.67998C14.6322 3.19998 14.4642 2.79198 14.1282 2.45598C13.7922 2.09598 13.3722 1.91598 12.8682 1.91598H5.27216V13.04H16.7562C17.2362 13.016 17.6442 12.836 17.9802 12.5C18.3162 12.164 18.4842 11.744 18.4842 11.24V10.736H18.8442V16.424H18.4842V15.884Z" fill="white"/>
<path d="M20.5998 25.76C21.0158 25.76 21.3678 25.616 21.6558 25.328C21.9598 25.024 22.1198 24.664 22.1358 24.248V10.808C22.1358 10.424 21.9838 10.104 21.6798 9.84798C21.3758 9.57598 21.0158 9.43998 20.5998 9.43998H20.3118L20.2878 9.19998H27.3198C27.8158 9.19998 28.3518 9.15198 28.9278 9.05598C29.5198 8.95998 29.9358 8.86398 30.1758 8.76798V11.792H29.9358V11.36C29.9358 10.976 29.7998 10.648 29.5278 10.376C29.2718 10.104 28.9598 9.95998 28.5918 9.94398H23.6958V17.36H27.7518C28.0718 17.344 28.3438 17.224 28.5678 17C28.7918 16.776 28.9038 16.496 28.9038 16.16V15.824H29.1438V19.616H28.9038V19.256C28.9038 18.936 28.7918 18.664 28.5678 18.44C28.3598 18.216 28.0958 18.096 27.7758 18.08H23.6958V25.256H27.1278C28.3118 25.256 29.2158 24.992 29.8398 24.464C30.4638 23.936 30.9838 23.152 31.3998 22.112H31.6398L30.2478 26H20.2878V25.76H20.5998Z" fill="white"/>
<path d="M34.217 25.76C34.633 25.76 34.985 25.616 35.273 25.328C35.577 25.024 35.737 24.664 35.753 24.248V10.808C35.753 10.424 35.601 10.104 35.297 9.84798C34.993 9.57598 34.633 9.43998 34.217 9.43998H33.929L33.905 9.19998H40.937C41.433 9.19998 41.969 9.15198 42.545 9.05598C43.137 8.95998 43.553 8.86398 43.793 8.76798V11.792H43.553V11.36C43.553 10.976 43.417 10.648 43.145 10.376C42.889 10.104 42.577 9.95998 42.209 9.94398H37.313V17.36H41.369C41.689 17.344 41.961 17.224 42.185 17C42.409 16.776 42.521 16.496 42.521 16.16V15.824H42.761V19.616H42.521V19.256C42.521 18.936 42.409 18.664 42.185 18.44C41.977 18.216 41.713 18.096 41.393 18.08H37.313V25.256H40.745C41.929 25.256 42.833 24.992 43.457 24.464C44.081 23.936 44.601 23.152 45.017 22.112H45.257L43.865 26H33.905V25.76H34.217Z" fill="white"/>
<path d="M47.8342 25.76C48.2502 25.76 48.6022 25.616 48.8902 25.328C49.1942 25.024 49.3542 24.664 49.3702 24.248V10.952C49.3542 10.536 49.1942 10.184 48.8902 9.89598C48.6022 9.59198 48.2502 9.43998 47.8342 9.43998H47.5222V9.19998H52.7782V9.43998H52.4662C51.8902 9.43998 51.4502 9.68798 51.1462 10.184C51.0022 10.424 50.9302 10.68 50.9302 10.952V25.256H54.3622C55.5462 25.256 56.4502 24.992 57.0742 24.464C57.6982 23.936 58.2182 23.152 58.6342 22.112H58.8742L57.4822 26H47.5222V25.76H47.8342Z" fill="white"/>
<path d="M94.8842 32.264C91.8362 32.264 89.3402 31.292 87.3962 29.348C85.9562 27.908 85.0082 26.096 84.5522 23.912C82.2722 25.64 79.4762 26.504 76.1642 26.504C73.5482 26.504 71.1602 25.94 69.0002 24.812C66.8642 23.66 65.1842 22.088 63.9602 20.096C62.7602 18.104 62.1602 15.86 62.1602 13.364C62.1602 10.868 62.7602 8.62396 63.9602 6.63196C65.1842 4.61596 66.8642 3.05596 69.0002 1.95196C71.1362 0.84796 73.5242 0.295959 76.1642 0.295959C79.4762 0.295959 82.3922 1.11196 84.9122 2.74396L85.6322 7.81996H85.3082C84.5882 5.03596 82.9562 3.13996 80.4122 2.13196C79.1642 1.62796 77.7482 1.37596 76.1642 1.37596C72.9242 1.37596 70.2242 2.50396 68.0642 4.75996C65.9282 7.01596 64.8602 9.88396 64.8602 13.364C64.8602 16.82 65.9402 19.688 68.1002 21.968C70.2602 24.248 72.9482 25.4 76.1642 25.424C77.7242 25.424 79.2122 25.148 80.6282 24.596C82.0442 24.044 83.2562 23.276 84.2642 22.292V15.92C84.2642 15.392 84.1082 14.996 83.7962 14.732C83.4842 14.444 83.0402 14.3 82.4642 14.3H81.8882V13.94H88.9442V14.3H88.4042C87.8042 14.3 87.3482 14.444 87.0362 14.732C86.7242 14.996 86.5802 15.392 86.6042 15.92V21.464C86.7482 25.256 87.9842 27.968 90.3122 29.6C91.9442 30.752 94.0562 31.328 96.6482 31.328C97.7282 31.328 98.9042 31.22 100.176 31.004L100.212 31.364C98.2922 31.964 96.5162 32.264 94.8842 32.264Z" fill="#F4C18F"/>
<path d="M93.9735 11.288C95.6855 9.67196 97.9015 8.86396 100.621 8.86396C103.357 8.86396 105.581 9.67196 107.293 11.288C109.005 12.888 109.861 14.992 109.861 17.6C109.861 20.208 109.005 22.32 107.293 23.936C105.581 25.536 103.357 26.336 100.621 26.336C97.9015 26.336 95.6855 25.536 93.9735 23.936C92.2615 22.32 91.4055 20.208 91.4055 17.6C91.4055 14.992 92.2615 12.888 93.9735 11.288ZM95.2695 23.408C96.6295 24.88 98.4135 25.616 100.621 25.616C102.829 25.616 104.605 24.88 105.949 23.408C107.309 21.936 107.989 20 107.989 17.6C107.989 15.2 107.309 13.264 105.949 11.792C104.605 10.32 102.829 9.58396 100.621 9.58396C98.4135 9.58396 96.6295 10.32 95.2695 11.792C93.9255 13.264 93.2535 15.2 93.2535 17.6C93.2535 20 93.9255 21.936 95.2695 23.408Z" fill="#F4C18F"/>
<path d="M106.747 11.288C108.459 9.67196 110.675 8.86396 113.395 8.86396C116.131 8.86396 118.355 9.67196 120.067 11.288C121.779 12.888 122.635 14.992 122.635 17.6C122.635 20.208 121.779 22.32 120.067 23.936C118.355 25.536 116.131 26.336 113.395 26.336C110.675 26.336 108.459 25.536 106.747 23.936C105.035 22.32 104.179 20.208 104.179 17.6C104.179 14.992 105.035 12.888 106.747 11.288ZM108.043 23.408C109.403 24.88 111.187 25.616 113.395 25.616C115.603 25.616 117.379 24.88 118.723 23.408C120.083 21.936 120.763 20 120.763 17.6C120.763 15.2 120.083 13.264 118.723 11.792C117.379 10.32 115.603 9.58396 113.395 9.58396C111.187 9.58396 109.403 10.32 108.043 11.792C106.699 13.264 106.027 15.2 106.027 17.6C106.027 20 106.699 21.936 108.043 23.408Z" fill="#F4C18F"/>
<path d="M132.67 9.19996C135.23 9.19996 137.302 9.97596 138.886 11.528C140.486 13.064 141.286 15.088 141.286 17.6C141.286 20.112 140.486 22.144 138.886 23.696C137.302 25.232 135.23 26 132.67 26H124.534V25.76H124.846C125.262 25.76 125.614 25.616 125.902 25.328C126.206 25.024 126.366 24.664 126.382 24.248V10.808C126.382 10.424 126.222 10.104 125.902 9.84796C125.598 9.57596 125.246 9.43996 124.846 9.43996H124.558L124.534 9.19996H132.67ZM127.942 9.91996V25.28H132.67C134.014 25.28 135.198 24.96 136.222 24.32C137.262 23.68 138.062 22.784 138.622 21.632C139.198 20.464 139.486 19.12 139.486 17.6C139.486 15.296 138.854 13.44 137.59 12.032C136.342 10.624 134.702 9.91996 132.67 9.91996H127.942Z" fill="#F4C18F"/>
</svg>
